HIERARCHY
ROOT SpineBase
{
  OFFSET 0.000000 0.000000 0.000000
  CHANNELS 6 Xposition Yposition Zposition Zrotation Xrotation Yrotation
  JOINT SpineMid
  {
    OFFSET -0.000000 35.926879 0.000000
    CHANNELS 3 Zrotation Xrotation Yrotation
    JOINT SpineShoulder
    {
      OFFSET -0.219897 26.668281 -0.992163
      CHANNELS 3 Zrotation Xrotation Yrotation
      JOINT Neck
      {
        OFFSET -0.143893 8.816181 -0.725045
        CHANNELS 3 Zrotation Xrotation Yrotation
        JOINT Head
        {
          OFFSET -2.210087 11.540672 6.194479
          CHANNELS 3 Zrotation Xrotation Yrotation
          End Site
          {
            OFFSET 0 0 0
          }
        }
      }
      JOINT ShoulderLeft
      {
        OFFSET -11.936741 -3.969585 19.684508
        CHANNELS 3 Zrotation Xrotation Yrotation
        JOINT ElbowLeft
        {
          OFFSET -12.988279 -10.979756 -26.068074
          CHANNELS 3 Zrotation Xrotation Yrotation
          JOINT WristLeft
          {
            OFFSET -10.711602 -9.534656 14.892491
            CHANNELS 3 Zrotation Xrotation Yrotation
            JOINT HandLeft
            {
              OFFSET -3.530608 -3.261153 5.416187
              CHANNELS 3 Zrotation Xrotation Yrotation
              JOINT HandTipLeft
              {
                OFFSET 1.095328 2.485867 2.343997
                CHANNELS 3 Zrotation Xrotation Yrotation
                End Site
                {
                  OFFSET 0 0 0
                }
              }
              JOINT ThumbLeft
              {
                OFFSET -0.177107 0.544473 -2.978069
                CHANNELS 3 Zrotation Xrotation Yrotation
                End Site
                {
                  OFFSET 0 0 0
                }
              }
            }
          }
        }
      }
      JOINT ShoulderRight
      {
        OFFSET -1.274333 -5.755111 -13.836102
        CHANNELS 3 Zrotation Xrotation Yrotation
        JOINT ElbowRight
        {
          OFFSET -11.286406 -23.689014 -6.298423
          CHANNELS 3 Zrotation Xrotation Yrotation
          JOINT WristRight
          {
            OFFSET -8.398259 -20.195378 1.353112
            CHANNELS 3 Zrotation Xrotation Yrotation
            JOINT HandRight
            {
              OFFSET -2.878403 -9.988259 2.435620
              CHANNELS 3 Zrotation Xrotation Yrotation
              JOINT HandTipRight
              {
                OFFSET -5.975788 -6.013256 0.660549
                CHANNELS 3 Zrotation Xrotation Yrotation
                End Site
                {
                  OFFSET 0 0 0
                }
              }
              JOINT ThumbRight
              {
                OFFSET 4.668566 -2.022793 -4.486625
                CHANNELS 3 Zrotation Xrotation Yrotation
                End Site
                {
                  OFFSET 0 0 0
                }
              }
            }
          }
        }
      }
    }
  }
  JOINT HipLeft
  {
    OFFSET -2.239931 0.700831 -0.077200
    CHANNELS 3 Zrotation Xrotation Yrotation
    JOINT KneeLeft
    {
      OFFSET -6.511849 -40.574939 -2.559618
      CHANNELS 3 Zrotation Xrotation Yrotation
      JOINT AnkleLeft
      {
        OFFSET 3.137368 -33.761743 0.166818
        CHANNELS 3 Zrotation Xrotation Yrotation
        JOINT FootLeft
        {
          OFFSET -9.847021 -5.143539 -7.491299
          CHANNELS 3 Zrotation Xrotation Yrotation
          End Site
          {
            OFFSET 0 0 0
          }
        }
      }
    }
  }
  JOINT HipRight
  {
    OFFSET 0.920794 1.990989 -7.785834
    CHANNELS 3 Zrotation Xrotation Yrotation
    JOINT KneeRight
    {
      OFFSET -20.204572 -36.365789 -5.771215
      CHANNELS 3 Zrotation Xrotation Yrotation
      JOINT AnkleRight
      {
        OFFSET -0.214640 -38.168145 -3.236165
        CHANNELS 3 Zrotation Xrotation Yrotation
        JOINT FootRight
        {
          OFFSET -5.112746 -5.569263 1.929687
          CHANNELS 3 Zrotation Xrotation Yrotation
          End Site
          {
            OFFSET 0 0 0
          }
        }
      }
    }
  }
}
MOTION
Frames: 16
Frame Time: 0.033333
47.084845 79.748263 297.334672 5.497321 4.373629 64.997755 0.811475 -0.021344 -64.968492 0.005547 0.256616 0.298026 9.361851 3.863717 -6.645271 0.000000 0.000000 0.000000 -5.919633 -5.297908 -0.845400 -0.000000 0.000000 0.000000 -0.000000 0.000000 0.000000 -0.000000 0.000000 0.000000 0.000000 0.000000 0.000000 0.000000 0.000000 0.000000 -0.311810 -3.382676 -2.890528 -6.284613 0.115419 1.323258 6.080011 -1.990225 2.491141 10.409201 -0.155734 0.439790 0.000000 0.000000 0.000000 0.000000 0.000000 0.000000 -4.240916 1.334332 -65.448850 -2.489516 -1.105303 0.309558 -6.890798 6.307374 -1.387622 0.000000 0.000000 0.000000 -4.782103 1.672713 -65.828738 -1.341085 -1.533058 0.682740 -3.480251 1.021109 -1.106464 0.000000 0.000000 0.000000
47.492992 79.187304 297.990369 7.148168 4.775769 64.897518 0.923584 -0.240686 -64.880082 -0.198075 0.476368 0.346003 9.308673 2.376749 -7.582987 0.000000 0.000000 0.000000 -7.636343 -5.890758 -1.115125 -0.000000 0.000000 0.000000 -0.000000 0.000000 0.000000 -0.000000 0.000000 0.000000 0.000000 0.000000 0.000000 0.000000 0.000000 0.000000 -0.535939 -3.287704 -3.783535 -7.716457 -0.192418 1.762271 6.697308 -0.913379 2.428938 11.808437 -1.892693 1.755249 0.000000 0.000000 0.000000 0.000000 0.000000 0.000000 -4.633350 2.551489 -65.524391 -4.527835 -0.815161 0.443417 -3.646572 3.726597 -0.866911 0.000000 0.000000 0.000000 -5.254233 3.751846 -66.196505 -0.817728 -2.677339 1.091474 -3.367983 1.148624 -0.897809 0.000000 0.000000 0.000000
46.964704 78.669855 297.979890 8.178650 5.685770 64.005819 0.653658 0.019793 -64.075616 -0.034030 0.314776 0.410548 10.746308 1.382959 -8.642203 0.000000 0.000000 0.000000 -8.506185 -6.478712 -1.284537 -0.000000 0.000000 0.000000 -0.000000 0.000000 0.000000 -0.000000 0.000000 0.000000 0.000000 0.000000 0.000000 0.000000 0.000000 0.000000 0.129977 -3.127630 -4.611352 -8.992676 -0.404823 2.160662 6.482990 0.564254 2.058325 9.041890 -4.406288 2.954491 0.000000 0.000000 0.000000 0.000000 0.000000 0.000000 -5.765027 0.939223 -64.643402 -7.767627 1.051629 0.589255 -2.113037 1.949693 -0.308418 0.000000 0.000000 0.000000 -6.156521 3.559303 -65.546303 -1.643203 -3.097542 1.268331 -3.286790 1.142040 -0.623262 0.000000 0.000000 0.000000
45.583391 78.140412 297.675324 8.573950 6.742786 60.328931 0.466955 0.248960 -60.495023 0.129234 0.038781 0.464410 12.165492 -0.452860 -9.324927 0.000000 0.000000 0.000000 -8.824748 -7.182177 -1.393983 -0.000000 0.000000 0.000000 -0.000000 0.000000 0.000000 -0.602216 0.032108 0.552444 0.000000 0.000000 0.000000 0.000000 0.000000 0.000000 1.818525 -2.879572 -5.568106 -10.303394 -0.727718 2.708936 6.729577 2.705872 1.687411 9.310905 -7.601858 4.972428 0.000000 0.000000 0.000000 0.000000 0.000000 0.000000 -7.261090 -3.421448 -60.791847 -12.315655 4.441030 0.886351 -2.050387 1.514543 -0.130592 0.000000 0.000000 0.000000 -6.257852 1.528485 -62.489422 -3.570391 -3.813953 1.749417 -3.019584 1.631867 -0.747688 0.000000 0.000000 0.000000
43.599183 77.647998 297.306758 8.565710 7.813686 56.232530 0.383571 0.466565 -56.494050 0.308701 -0.196374 0.507994 13.528029 -2.062442 -9.670398 0.000000 0.000000 0.000000 -8.820494 -8.064324 -1.474896 -0.000000 0.000000 0.000000 -0.000000 0.000000 0.000000 -0.670979 0.025541 0.619852 0.000000 0.000000 0.000000 0.000000 0.000000 0.000000 4.361756 -2.669519 -6.647564 -11.850690 -0.713631 3.200085 7.397113 4.113007 1.842298 9.347846 -10.670500 6.986402 0.000000 0.000000 0.000000 0.000000 0.000000 0.000000 -7.268536 -9.287465 -56.552881 -18.162869 7.976029 1.586114 -0.127996 0.053853 -0.948360 0.000000 0.000000 0.000000 -5.408275 -1.626515 -59.120984 -6.665535 -4.655621 2.372415 -1.927428 2.445258 -1.023837 0.000000 0.000000 0.000000
41.262412 77.230434 296.911270 8.184471 8.786614 49.602466 0.222613 0.667935 -49.936741 0.416091 -0.435756 0.523093 15.389845 -3.326943 -9.944268 0.000000 0.000000 0.000000 -8.362026 -8.831679 -1.472571 -0.000000 0.000000 0.000000 -0.000000 0.000000 0.000000 -0.732309 0.017586 0.680865 0.000000 0.000000 0.000000 0.000000 0.000000 0.000000 7.537879 -2.422083 -7.649795 -13.197619 -0.371248 3.599015 7.430492 4.477528 2.321011 13.245867 -12.473128 9.893279 0.000000 0.000000 0.000000 0.000000 0.000000 0.000000 -5.116726 -16.273062 -49.403679 -24.824167 11.713950 2.715716 0.528544 -0.574411 -1.658123 0.000000 0.000000 0.000000 -2.922962 -5.151481 -53.399917 -10.175826 -6.074098 3.276443 -0.638510 3.649087 -1.638551 0.000000 0.000000 0.000000
38.866813 77.023251 296.519708 7.524584 9.572636 45.389414 0.096437 0.786131 -45.758005 0.502883 -0.627304 0.518534 17.252431 -3.969165 -10.082262 0.000000 0.000000 0.000000 -7.660724 -9.460055 -1.412389 -0.000000 0.000000 0.000000 -0.000000 0.000000 0.000000 -0.781792 0.009359 0.730863 0.000000 0.000000 0.000000 0.000000 0.000000 0.000000 11.215683 -2.074249 -8.665193 -14.057048 0.164191 4.044545 6.638042 2.781167 3.494712 16.392022 -11.364197 9.822343 0.000000 0.000000 0.000000 0.000000 0.000000 0.000000 -1.891690 -22.270895 -44.194830 -30.444111 14.760021 3.907450 -1.616175 0.149378 -1.590109 0.000000 0.000000 0.000000 -0.015129 -8.906009 -49.394030 -14.167450 -7.106786 3.828370 -0.019077 5.787005 -3.090000 0.000000 0.000000 0.000000
36.602938 76.943238 296.183577 6.925509 10.288597 44.748369 0.218641 0.798851 -45.122051 0.605357 -0.686527 0.524478 18.791903 -4.853312 -10.169139 0.000000 0.000000 0.000000 -7.258377 -10.224696 -1.406334 -0.000000 0.000000 0.000000 -0.000000 0.000000 0.000000 -0.833556 0.000156 0.783406 0.000000 0.000000 0.000000 0.000000 0.000000 0.000000 14.787711 -1.890017 -9.719717 -14.954627 0.447054 4.613248 5.952778 -0.614828 5.374712 18.235979 -8.963608 8.099521 0.000000 0.000000 0.000000 0.000000 0.000000 0.000000 0.920443 -26.030351 -42.665860 -34.244071 15.165377 4.479013 -0.673724 -0.675253 -1.819072 0.000000 0.000000 0.000000 2.270585 -12.801665 -48.379476 -18.402678 -7.523847 4.086381 0.477975 8.165089 -4.814177 0.000000 0.000000 0.000000
34.807352 77.018884 295.995849 6.410170 10.774440 47.565924 0.404589 0.703556 -47.916511 0.598087 -0.680908 0.512126 20.217399 -5.129887 -10.294131 0.000000 0.000000 0.000000 -6.903669 -10.775494 -1.387266 -0.000000 0.000000 0.000000 -0.000000 0.000000 0.000000 -0.873153 -0.007780 0.823978 0.000000 0.000000 0.000000 0.000000 0.000000 0.000000 18.258417 -1.764598 -10.647643 -15.498814 0.922157 5.157474 4.081169 -4.472482 7.008754 19.917443 -6.299993 5.746511 0.000000 0.000000 0.000000 0.000000 0.000000 0.000000 2.222358 -27.320596 -45.304295 -35.305941 12.545407 4.046979 -0.683967 0.145154 -2.164846 0.000000 0.000000 0.000000 3.112662 -16.567468 -50.536273 -22.223497 -7.390100 4.129963 0.333771 10.373787 -6.517712 0.000000 0.000000 0.000000
33.773179 77.294143 295.936952 6.144494 11.005828 51.978858 0.607924 0.473566 -52.290272 0.485140 -0.568631 0.488167 21.476026 -4.517152 -10.564133 0.000000 0.000000 0.000000 -6.780453 -11.119427 -1.391262 -0.000000 0.000000 0.000000 -0.000000 0.000000 0.000000 -0.897790 -0.014205 0.849867 0.000000 0.000000 0.000000 0.000000 0.000000 0.000000 21.073834 -1.800386 -11.337205 -15.831543 1.484611 5.601816 1.524276 -8.289406 8.129648 20.591838 -3.255776 2.206626 0.000000 0.000000 0.000000 0.000000 0.000000 0.000000 2.087935 -28.028646 -49.937296 -36.681855 10.411626 3.769193 0.214116 0.612069 -2.794512 0.000000 0.000000 0.000000 2.127940 -19.495429 -54.316132 -25.078896 -6.669470 3.977010 0.570316 12.461773 -8.139147 0.000000 0.000000 0.000000
33.496340 77.385625 296.197327 6.420907 10.970329 56.215718 0.869949 0.131649 -56.493610 0.327938 -0.297027 0.478535 21.605484 -4.978573 -10.759643 0.000000 0.000000 0.000000 -7.291456 -11.369686 -1.502635 -0.000000 0.000000 0.000000 -0.000000 0.000000 0.000000 -0.923177 -0.019962 0.876161 0.000000 0.000000 0.000000 0.000000 0.000000 0.000000 22.809572 -1.965912 -11.928023 -16.136324 1.893282 5.996064 -0.924826 -11.002745 8.614336 20.371473 -0.569553 -1.426678 0.000000 0.000000 0.000000 0.000000 0.000000 0.000000 1.536211 -27.127439 -54.758343 -37.269130 7.978278 3.305281 1.052891 1.186605 -3.429072 0.000000 0.000000 0.000000 0.101210 -20.620718 -58.300611 -26.575388 -5.926706 3.772133 0.781962 13.882926 -9.216624 0.000000 0.000000 0.000000
34.274215 77.331739 296.817574 7.266536 10.512093 60.379695 1.086211 -0.316283 -60.628270 0.078720 0.056697 0.469610 20.558890 -5.881998 -10.953180 0.000000 0.000000 0.000000 -8.344985 -11.231529 -1.681701 -0.000000 0.000000 0.000000 -0.000000 0.000000 0.000000 -0.938204 -0.024032 0.892012 0.000000 0.000000 0.000000 0.000000 0.000000 0.000000 23.699521 -1.918384 -12.638409 -16.603737 2.083086 6.372065 -5.119196 -13.149712 7.690115 20.912971 1.250688 -2.991779 0.000000 0.000000 0.000000 0.000000 0.000000 0.000000 0.816563 -24.155986 -59.843513 -36.767065 5.419857 2.677877 0.952140 1.949708 -3.213699 0.000000 0.000000 0.000000 -2.437372 -19.408542 -62.522116 -26.457807 -5.369950 3.474539 0.533218 14.834672 -9.929840 0.000000 0.000000 0.000000
34.299441 77.508844 296.776755 7.498857 10.590072 63.098426 0.885507 -0.283786 -63.379480 0.076492 -0.110656 0.481211 21.097239 -5.707924 -11.270979 0.000000 0.000000 0.000000 -8.409487 -11.014622 -1.674072 -0.000000 0.000000 0.000000 -0.000000 0.000000 0.000000 -0.941225 -0.026592 0.895962 0.000000 0.000000 0.000000 0.000000 0.000000 0.000000 24.808382 -1.848799 -12.952039 -16.974814 2.248713 6.573255 -11.741932 -13.098715 4.447954 23.096311 2.059351 -2.983841 0.000000 0.000000 0.000000 0.000000 0.000000 0.000000 0.359922 -23.414875 -62.928193 -37.110104 3.993970 2.368583 1.899773 2.105512 -3.480129 0.000000 0.000000 0.000000 -4.634898 -20.011885 -64.746785 -27.260027 -3.850715 3.143769 0.371009 15.245235 -10.324648 0.000000 0.000000 0.000000
34.244598 77.790017 296.831914 7.618271 10.544349 65.383410 0.852077 -0.314021 -65.669954 -0.031583 -0.222809 0.471975 21.077376 -5.942384 -11.324304 0.000000 0.000000 0.000000 -9.977045 -7.954122 -1.404478 -0.006091 -4.507850 -1.184111 0.024872 0.021021 -0.200144 0.519044 1.683599 1.783352 0.000000 0.000000 0.000000 0.000000 0.000000 0.000000 25.536933 -1.829546 -13.109318 -17.451378 2.203805 6.722373 -16.796907 -12.289840 1.702911 25.342926 2.103644 -1.933642 0.000000 0.000000 0.000000 0.000000 0.000000 0.000000 0.056708 -22.746619 -65.503163 -37.682582 3.148902 2.160038 5.969699 0.038863 -4.456348 0.000000 0.000000 0.000000 -6.256710 -20.440592 -66.678310 -27.847703 -2.543128 2.927886 0.504378 15.202263 -10.399561 0.000000 0.000000 0.000000
34.030679 77.932500 296.957564 7.510758 10.397602 66.333484 0.648407 -0.201440 -66.624479 -0.418190 -0.402853 0.394075 21.931556 -5.473363 -11.462273 0.000000 0.000000 0.000000 -8.825280 -8.160141 -1.478977 0.001783 -3.529115 -0.583130 -0.011778 0.018749 -0.203178 0.166577 1.311857 1.502427 0.000000 0.000000 0.000000 0.000000 0.000000 0.000000 26.096904 -1.528043 -13.056099 -17.430607 2.219743 6.709222 -18.432325 -10.701754 0.449676 24.989338 0.399966 0.284007 0.000000 0.000000 0.000000 0.000000 0.000000 0.000000 0.355500 -23.732415 -66.387363 -40.065419 4.320905 2.441827 10.965748 -3.764135 -5.277498 0.000000 0.000000 0.000000 -6.512906 -20.912005 -67.550158 -28.531593 -2.026187 2.953606 1.556722 15.023149 -10.393942 0.000000 0.000000 0.000000
33.691197 77.760532 297.079394 6.997520 10.085550 65.707958 0.156193 0.062971 -65.991157 -0.657802 -0.472374 0.304789 22.322650 -4.702094 -11.286091 0.000000 0.000000 0.000000 -5.544624 -11.025977 -1.733908 -0.002801 2.033193 1.304302 -0.201952 0.009006 -0.226388 -1.618492 -0.778753 0.400090 0.000000 0.000000 0.000000 0.000000 0.000000 0.000000 26.133488 -1.061459 -12.687324 -16.976900 2.277557 6.489637 -17.876655 -10.393693 0.473283 25.247104 -0.376129 1.657430 0.000000 0.000000 0.000000 0.000000 0.000000 0.000000 1.212700 -24.507619 -65.536362 -40.244623 4.799311 2.561705 10.034354 -3.620833 -5.222697 0.000000 0.000000 0.000000 -5.113231 -21.233550 -67.141381 -28.306969 -2.419628 3.135106 2.213091 14.772718 -10.362313 0.000000 0.000000 0.000000
